<svg viewBox="238.5 236 23 28" width="23" height="28" xmlns="http://www.w3.org/2000/svg"><g transform="translate(514.503 227.745)"><path style="fill:none" d="M-276.003 8.255h23v28h-23z"/><g transform="matrix(3.80952 0 0 2.32558 -310.218 -4.78)"><path d="M12 7.75c-.621 0-1.125.504-1.125 1.125a.75.75 0 0 1-1.5 0 2.625 2.625 0 1 1 4.508 1.829c-.092.095-.18.183-.264.267-.216.215-.405.404-.571.617-.22.282-.298.489-.298.662V13a.75.75 0 0 1-1.5 0v-.75c0-.655.305-1.186.614-1.583.229-.294.516-.58.75-.814.07-.07.136-.135.193-.194A1.125 1.125 0 0 0 12 7.75ZM12 17a1 1 0 1 0 0-2 1 1 0 0 0 0 2Z" fill="#FECB67" style="stroke-width:.5px;stroke:#2c2c2c"/></g></g></svg>